<?xml version="1.0" standalone="no"?>
<!DOCTYPE svg PUBLIC "-//W3C//DTD SVG 20010904//EN"
 "http://www.w3.org/TR/2001/REC-SVG-20010904/DTD/svg10.dtd">
<svg version="1.0" xmlns="http://www.w3.org/2000/svg"
 width="261.000000pt" height="261.000000pt" viewBox="0 0 261.000000 261.000000"
 preserveAspectRatio="xMidYMid meet">
<metadata>
Created by potrace 1.11, written by Peter Selinger 2001-2013
</metadata>
<g transform="translate(0.000000,261.000000) scale(0.100000,-0.100000)"
fill="#000000" stroke="none">
<path d="M1095 2584 c-552 -84 -998 -534 -1079 -1085 -94 -637 271 -1232 877
-1434 678 -226 1415 146 1642 828 226 678 -146 1415 -828 1642 -185 61 -413
80 -612 49z m434 -264 c237 -49 394 -188 436 -387 29 -136 13 -288 -41 -395
-45 -89 -113 -145 -272 -227 l-143 -73 -202 -1 c-192 -2 -205 -3 -251 -26 -66
-33 -122 -91 -155 -160 -24 -52 -26 -66 -26 -191 0 -127 2 -138 28 -191 35
-73 107 -140 183 -170 53 -22 74 -24 214 -24 140 0 161 2 214 24 76 30 148 97
183 170 22 47 27 73 31 167 5 124 -10 200 -54 266 l-24 38 99 50 100 50 26
-32 c34 -40 69 -110 89 -177 21 -73 22 -275 1 -356 -52 -198 -223 -353 -445
-402 -102 -23 -338 -23 -440 0 -223 49 -393 203 -445 402 -23 89 -20 286 5
366 48 155 118 230 314 339 l138 77 52 -10 c28 -5 116 -7 196 -5 175 6 235 24
304 94 61 61 88 134 89 244 2 108 -21 177 -76 238 -77 83 -180 117 -357 117
-177 0 -280 -34 -357 -117 -54 -59 -77 -130 -77 -233 0 -86 22 -166 54 -208
24 -30 26 -28 -91 -91 l-86 -46 -25 32 c-88 115 -119 290 -83 461 42 197 198
338 432 387 124 26 336 26 462 0z"/>
</g>
</svg>
